<svg xmlns="http://www.w3.org/2000/svg" viewBox="0 0 1600 1050" preserveAspectRatio="xMidYMid slice">
  <defs>
    <linearGradient id="csky" x1="0" y1="0" x2="0" y2="1">
      <stop offset="0" stop-color="#0a0a0b"/>
      <stop offset=".55" stop-color="#110d09"/>
      <stop offset="1" stop-color="#0a0a0b"/>
    </linearGradient>
    <radialGradient id="caselight" cx=".5" cy=".5" r=".5">
      <stop offset="0" stop-color="#e9c98a" stop-opacity=".26"/>
      <stop offset=".5" stop-color="#c8a375" stop-opacity=".09"/>
      <stop offset="1" stop-color="#c8a375" stop-opacity="0"/>
    </radialGradient>
    <linearGradient id="ccounter" x1="0" y1="0" x2="0" y2="1">
      <stop offset="0" stop-color="#221610"/>
      <stop offset=".14" stop-color="#170f0a"/>
      <stop offset="1" stop-color="#0a0a0b"/>
    </linearGradient>
    <linearGradient id="crimV" x1="0" y1="0" x2="0" y2="1">
      <stop offset="0" stop-color="#c8a375" stop-opacity=".5"/>
      <stop offset="1" stop-color="#c8a375" stop-opacity="0"/>
    </linearGradient>
    <linearGradient id="fadeR" x1="0" y1="0" x2="1" y2="0">
      <stop offset="0" stop-color="#0a0a0b" stop-opacity="0"/>
      <stop offset=".4" stop-color="#0a0a0b" stop-opacity=".7"/>
      <stop offset="1" stop-color="#0a0a0b"/>
    </linearGradient>
    <linearGradient id="glassTint" x1="0" y1="0" x2="0" y2="1">
      <stop offset="0" stop-color="#e9c98a" stop-opacity=".10"/>
      <stop offset="1" stop-color="#e9c98a" stop-opacity=".02"/>
    </linearGradient>
  </defs>

  <rect width="1600" height="1050" fill="url(#csky)"/>

  <!-- dim far bokeh, mirrored feel from the right scene -->
  <circle cx="1380" cy="300" r="40" fill="#c8a375" opacity=".04"/>
  <circle cx="1240" cy="210" r="22" fill="#e9c98a" opacity=".04"/>
  <circle cx="1480" cy="470" r="26" fill="#c8a375" opacity=".03"/>

  <!-- case interior warm light -->
  <circle cx="115" cy="470" r="230" fill="url(#caselight)"/>

  <!-- counter -->
  <rect x="0" y="700" width="1600" height="350" fill="url(#ccounter)"/>
  <line x1="0" y1="700" x2="1600" y2="700" stroke="rgba(200,163,117,.25)" stroke-width="2"/>
  <ellipse cx="115" cy="718" rx="260" ry="20" fill="#c8a375" opacity=".07"/>

  <!-- ══ pastry display case — bleeds off the left edge ══ -->
  <g transform="translate(-260 0)">
    <!-- case body: two glass shelves in a rim-lit frame -->
    <rect x="90" y="430" width="360" height="270" rx="14" fill="#161009"/>
    <!-- glass front panel tint -->
    <rect x="106" y="446" width="328" height="238" rx="8" fill="url(#glassTint)"/>
    <!-- shelves -->
    <line x1="98" y1="560" x2="442" y2="560" stroke="rgba(200,163,117,.4)" stroke-width="3"/>
    <line x1="98" y1="446" x2="442" y2="446" stroke="rgba(200,163,117,.55)" stroke-width="2.5"/>
    <line x1="98" y1="684" x2="442" y2="684" stroke="rgba(200,163,117,.55)" stroke-width="2.5"/>

    <!-- top shelf: croissants — crescent body + a few flake ridges so they
         read as a distinct pastry shape rather than a rounded blob -->
    <g>
      <g transform="translate(120 494)">
        <path d="M4,22 C14,4 46,4 56,20 C46,30 36,26 30,18 C24,26 14,30 4,22 Z" fill="#c8935a" stroke="rgba(233,201,138,.55)" stroke-width="1.5"/>
        <path d="M16,12 Q20,8 24,11 M28,9 Q32,5 36,9 M40,11 Q44,8 47,12" fill="none" stroke="rgba(255,238,210,.6)" stroke-width="1.3" stroke-linecap="round"/>
      </g>
      <g transform="translate(182 500)">
        <path d="M4,22 C14,4 46,4 56,20 C46,30 36,26 30,18 C24,26 14,30 4,22 Z" fill="#d9a06a" stroke="rgba(233,201,138,.55)" stroke-width="1.5"/>
        <path d="M16,12 Q20,8 24,11 M28,9 Q32,5 36,9 M40,11 Q44,8 47,12" fill="none" stroke="rgba(255,238,210,.6)" stroke-width="1.3" stroke-linecap="round"/>
      </g>
      <g transform="translate(244 494)">
        <path d="M4,22 C14,4 46,4 56,20 C46,30 36,26 30,18 C24,26 14,30 4,22 Z" fill="#c8935a" stroke="rgba(233,201,138,.55)" stroke-width="1.5"/>
        <path d="M16,12 Q20,8 24,11 M28,9 Q32,5 36,9 M40,11 Q44,8 47,12" fill="none" stroke="rgba(255,238,210,.6)" stroke-width="1.3" stroke-linecap="round"/>
      </g>
      <g transform="translate(306 500)">
        <path d="M4,22 C14,4 46,4 56,20 C46,30 36,26 30,18 C24,26 14,30 4,22 Z" fill="#b8845a" stroke="rgba(233,201,138,.55)" stroke-width="1.5"/>
        <path d="M16,12 Q20,8 24,11 M28,9 Q32,5 36,9 M40,11 Q44,8 47,12" fill="none" stroke="rgba(255,238,210,.6)" stroke-width="1.3" stroke-linecap="round"/>
      </g>
    </g>

    <!-- middle shelf: macarons — shell / filling / shell, so each one reads
         as a sandwich cookie instead of a soft lozenge -->
    <g stroke="rgba(233,201,138,.55)" stroke-width="1.3">
      <g transform="translate(140 636)">
        <ellipse cx="20" cy="16" rx="19" ry="7"/>
        <ellipse cx="20" cy="16" rx="19" ry="7" fill="#c8895a"/>
        <rect x="3" y="12" width="34" height="6" rx="3" fill="#f0ddc0" stroke="none"/>
        <ellipse cx="20" cy="8" rx="18" ry="6.6" fill="#d9a06a"/>
      </g>
      <g transform="translate(196 640)">
        <ellipse cx="20" cy="16" rx="19" ry="7"/>
        <ellipse cx="20" cy="16" rx="19" ry="7" fill="#b8734a"/>
        <rect x="3" y="12" width="34" height="6" rx="3" fill="#e8b9d4" stroke="none"/>
        <ellipse cx="20" cy="8" rx="18" ry="6.6" fill="#c8895a"/>
      </g>
      <g transform="translate(252 636)">
        <ellipse cx="20" cy="16" rx="19" ry="7"/>
        <ellipse cx="20" cy="16" rx="19" ry="7" fill="#d9a06a"/>
        <rect x="3" y="12" width="34" height="6" rx="3" fill="#f0ddc0" stroke="none"/>
        <ellipse cx="20" cy="8" rx="18" ry="6.6" fill="#e0b378"/>
      </g>
      <g transform="translate(308 640)">
        <ellipse cx="20" cy="16" rx="19" ry="7"/>
        <ellipse cx="20" cy="16" rx="19" ry="7" fill="#c8895a"/>
        <rect x="3" y="12" width="34" height="6" rx="3" fill="#f6d9a8" stroke="none"/>
        <ellipse cx="20" cy="8" rx="18" ry="6.6" fill="#b8734a"/>
      </g>
    </g>

    <!-- bottom shelf: cake slices — visible layer line + a frosting cap
         instead of the separate frosting-dot rects (read as noise at scale) -->
    <g>
      <g>
        <path d="M130 682 L170 682 L150 632 Z" fill="#8a5a36" stroke="rgba(233,201,138,.45)" stroke-width="1.5"/>
        <path d="M136 668 L164 668" stroke="rgba(240,221,192,.55)" stroke-width="1.5"/>
        <path d="M150 632 Q156 638 152 646 Q158 650 154 656" fill="none" stroke="#f0ddc0" stroke-width="3" stroke-linecap="round" opacity=".9"/>
      </g>
      <g>
        <path d="M190 682 L230 682 L210 636 Z" fill="#96613a" stroke="rgba(233,201,138,.45)" stroke-width="1.5"/>
        <path d="M196 670 L224 670" stroke="rgba(240,221,192,.55)" stroke-width="1.5"/>
        <path d="M210 636 Q216 642 212 650 Q218 654 214 660" fill="none" stroke="#f0ddc0" stroke-width="3" stroke-linecap="round" opacity=".9"/>
      </g>
      <g>
        <path d="M330 682 L376 682 L353 630 Z" fill="#8a5a36" stroke="rgba(233,201,138,.45)" stroke-width="1.5"/>
        <path d="M337 666 L369 666" stroke="rgba(240,221,192,.55)" stroke-width="1.5"/>
        <path d="M353 630 Q359 636 355 645 Q361 649 357 656" fill="none" stroke="#f0ddc0" stroke-width="3" stroke-linecap="round" opacity=".9"/>
      </g>
    </g>

    <!-- cake stand under a glass dome, right end of the case, on the counter -->
    <g>
      <ellipse cx="500" cy="700" rx="60" ry="10" fill="#1c120b"/>
      <rect x="470" y="686" width="60" height="14" rx="4" fill="#221610"/>
      <path d="M478 686 a42 60 0 0 1 84 0 Z" fill="url(#glassTint)" stroke="rgba(200,163,117,.4)" stroke-width="1.5"/>
      <ellipse cx="500" cy="676" rx="30" ry="12" fill="#8a5a36"/>
      <ellipse cx="500" cy="668" rx="26" ry="10" fill="#c8935a"/>
      <circle cx="490" cy="662" r="4" fill="#e05c5c" opacity=".8"/>
      <circle cx="508" cy="664" r="3.5" fill="#e05c5c" opacity=".8"/>
    </g>

    <!-- rim lights on the case frame -->
    <rect x="90" y="430" width="3" height="270" fill="url(#crimV)"/>
    <rect x="447" y="430" width="3" height="270" fill="url(#crimV)" opacity=".6"/>

    <!-- case base -->
    <rect x="100" y="702" width="340" height="16" rx="5" fill="#170f0a"/>
    <rect x="118" y="718" width="18" height="14" rx="3" fill="#110b07"/>
    <rect x="404" y="718" width="18" height="14" rx="3" fill="#110b07"/>
  </g>

  <!-- right fade keeps the text side clean (case sits at the LEFT edge) -->
  <rect x="620" width="980" height="1050" fill="url(#fadeR)"/>
</svg>
