<svg xmlns="http://www.w3.org/2000/svg" viewBox="0 0 1600 1050" preserveAspectRatio="xMidYMid slice">
  <defs>
    <linearGradient id="sky" x1="0" y1="0" x2="0" y2="1">
      <stop offset="0" stop-color="#0a0a0b"/>
      <stop offset=".5" stop-color="#120d09"/>
      <stop offset="1" stop-color="#0a0a0b"/>
    </linearGradient>
    <radialGradient id="lampGlowOuter" cx=".5" cy=".5" r=".5">
      <stop offset="0" stop-color="#c8a375" stop-opacity=".24"/>
      <stop offset=".45" stop-color="#c8a375" stop-opacity=".08"/>
      <stop offset="1" stop-color="#c8a375" stop-opacity="0"/>
    </radialGradient>
    <radialGradient id="lampGlowInner" cx=".5" cy=".5" r=".5">
      <stop offset="0" stop-color="#fff3da" stop-opacity=".65"/>
      <stop offset=".55" stop-color="#e9c98a" stop-opacity=".18"/>
      <stop offset="1" stop-color="#e9c98a" stop-opacity="0"/>
    </radialGradient>
    <linearGradient id="lightCone" x1="0" y1="0" x2="0" y2="1">
      <stop offset="0" stop-color="#e9c98a" stop-opacity=".10"/>
      <stop offset="1" stop-color="#e9c98a" stop-opacity="0"/>
    </linearGradient>
    <linearGradient id="counter" x1="0" y1="0" x2="0" y2="1">
      <stop offset="0" stop-color="#2a1c12"/>
      <stop offset=".08" stop-color="#241811"/>
      <stop offset=".4" stop-color="#170f0a"/>
      <stop offset="1" stop-color="#0a0a0b"/>
    </linearGradient>
    <linearGradient id="counterSheen" x1="0" y1="0" x2="1" y2="0">
      <stop offset="0" stop-color="#e9c98a" stop-opacity="0"/>
      <stop offset=".5" stop-color="#e9c98a" stop-opacity=".05"/>
      <stop offset="1" stop-color="#e9c98a" stop-opacity="0"/>
    </linearGradient>
    <linearGradient id="rimV" x1="0" y1="0" x2="0" y2="1">
      <stop offset="0" stop-color="#f0ddc0" stop-opacity=".62"/>
      <stop offset="1" stop-color="#c8a375" stop-opacity="0"/>
    </linearGradient>
    <linearGradient id="rimTop" x1="0" y1="0" x2="0" y2="1">
      <stop offset="0" stop-color="#f6e6c8" stop-opacity=".85"/>
      <stop offset="1" stop-color="#c8a375" stop-opacity="0"/>
    </linearGradient>
    <linearGradient id="bodyMetal" x1="0" y1="0" x2="0" y2="1">
      <stop offset="0" stop-color="#3a2a1c"/>
      <stop offset=".10" stop-color="#2c2015"/>
      <stop offset=".45" stop-color="#1c130c"/>
      <stop offset=".8" stop-color="#150e08"/>
      <stop offset="1" stop-color="#0e0a06"/>
    </linearGradient>
    <linearGradient id="bodySheen" x1="0" y1="0" x2="1" y2=".25">
      <stop offset="0" stop-color="#f0ddc0" stop-opacity="0"/>
      <stop offset=".42" stop-color="#f0ddc0" stop-opacity=".10"/>
      <stop offset=".5" stop-color="#fff6e4" stop-opacity=".16"/>
      <stop offset=".58" stop-color="#f0ddc0" stop-opacity=".10"/>
      <stop offset="1" stop-color="#f0ddc0" stop-opacity="0"/>
    </linearGradient>
    <radialGradient id="gaugeGlass" cx=".35" cy=".3" r=".8">
      <stop offset="0" stop-color="#fff6e4" stop-opacity=".5"/>
      <stop offset=".4" stop-color="#e9c98a" stop-opacity=".12"/>
      <stop offset="1" stop-color="#0e0a06" stop-opacity="0"/>
    </radialGradient>
    <linearGradient id="coffeeLiquid" x1="0" y1="0" x2="0" y2="1">
      <stop offset="0" stop-color="#caa06a"/>
      <stop offset=".18" stop-color="#8a5a30"/>
      <stop offset="1" stop-color="#3a2412"/>
    </linearGradient>
    <linearGradient id="ceramicCup" x1="0" y1="0" x2="0" y2="1">
      <stop offset="0" stop-color="#f4ece0"/>
      <stop offset="1" stop-color="#d8c8ae"/>
    </linearGradient>
    <linearGradient id="streamGrad" x1="0" y1="0" x2="0" y2="1">
      <stop offset="0" stop-color="#e9c98a" stop-opacity=".85"/>
      <stop offset="1" stop-color="#8a5a30" stop-opacity=".7"/>
    </linearGradient>
    <radialGradient id="hopperGlass" cx=".3" cy=".2" r=".9">
      <stop offset="0" stop-color="#5a4530" stop-opacity=".55"/>
      <stop offset=".6" stop-color="#241810" stop-opacity=".55"/>
      <stop offset="1" stop-color="#120c07" stop-opacity=".65"/>
    </radialGradient>
    <radialGradient id="tankGlass" cx=".3" cy=".2" r=".9">
      <stop offset="0" stop-color="#bcd8e6" stop-opacity=".28"/>
      <stop offset="1" stop-color="#12222a" stop-opacity=".35"/>
    </radialGradient>
    <radialGradient id="shadowSoft" cx=".5" cy=".5" r=".5">
      <stop offset="0" stop-color="#000" stop-opacity=".5"/>
      <stop offset="1" stop-color="#000" stop-opacity="0"/>
    </radialGradient>
    <linearGradient id="fadeL" x1="0" y1="0" x2="1" y2="0">
      <stop offset="0" stop-color="#0a0a0b"/>
      <stop offset=".6" stop-color="#0a0a0b" stop-opacity=".7"/>
      <stop offset="1" stop-color="#0a0a0b" stop-opacity="0"/>
    </linearGradient>

    <!-- polished chrome/steel, for group-head hardware, gauges, wands — distinct from the black body -->
    <linearGradient id="chrome" x1="0" y1="0" x2="0" y2="1">
      <stop offset="0" stop-color="#e8edf2"/>
      <stop offset=".15" stop-color="#aeb8c2"/>
      <stop offset=".4" stop-color="#6b747c"/>
      <stop offset=".55" stop-color="#8b95a0"/>
      <stop offset=".75" stop-color="#4a5158"/>
      <stop offset="1" stop-color="#2a2e33"/>
    </linearGradient>
    <linearGradient id="chromeH" x1="0" y1="0" x2="1" y2="0">
      <stop offset="0" stop-color="#3a3f45"/>
      <stop offset=".35" stop-color="#c7d0d8"/>
      <stop offset=".5" stop-color="#f2f6fa"/>
      <stop offset=".65" stop-color="#c7d0d8"/>
      <stop offset="1" stop-color="#3a3f45"/>
    </linearGradient>
    <linearGradient id="walnut" x1="0" y1="0" x2="0" y2="1">
      <stop offset="0" stop-color="#8a5a36"/>
      <stop offset=".5" stop-color="#6b4226"/>
      <stop offset="1" stop-color="#4a2c18"/>
    </linearGradient>

    <!-- pressure gauge: chrome bezel, glass, red zone, ticks, needle — used per group head -->
    <g id="pGauge">
      <circle cx="0" cy="0" r="20" fill="#0e0a06" stroke="url(#chrome)" stroke-width="4"/>
      <circle cx="0" cy="0" r="20" fill="url(#gaugeGlass)"/>
      <path d="M0 0 m-16 0 a16 16 0 1 1 32 0" fill="none" stroke="#e05c5c" stroke-width="1.6" opacity=".55"/>
      <g stroke="rgba(233,201,138,.55)" stroke-width="1.1">
        <line x1="0" y1="-16" x2="0" y2="-13"/>
        <line x1="16" y1="0" x2="13" y2="0"/>
        <line x1="0" y1="16" x2="0" y2="13"/>
        <line x1="-16" y1="0" x2="-13" y2="0"/>
        <line x1="11" y1="-11" x2="9" y2="-9"/>
        <line x1="-11" y1="-11" x2="-9" y2="-9"/>
      </g>
      <line x1="0" y1="0" x2="10" y2="-11" stroke="#fff3da" stroke-width="1.6" stroke-linecap="round"/>
      <circle cx="0" cy="0" r="2.4" fill="#fff3da"/>
      <path d="M-11 -9 a14 14 0 0 1 15 -3" fill="none" stroke="#fff6e4" stroke-width="1.6" opacity=".4" stroke-linecap="round"/>
    </g>

    <!-- demitasse cup: oval rim + tapered body + handle, raised clear of a smaller saucer beneath -->
    <g id="demiCup">
      <ellipse cx="0" cy="26" rx="30" ry="7" fill="url(#shadowSoft)"/>
      <ellipse cx="0" cy="22" rx="24" ry="6" fill="#efe6d6" stroke="rgba(200,163,117,.4)" stroke-width="1"/>
      <ellipse cx="0" cy="18" rx="15" ry="3.2" fill="#000" opacity=".22"/>
      <path d="M-17,0 C-17,8 -14,15 -8,18 L8,18 C14,15 17,8 17,0 Z" fill="url(#ceramicCup)" stroke="rgba(200,163,117,.45)" stroke-width="1.3"/>
      <path d="M16,3 q12,1 10,10 q-2,7 -11,6" fill="none" stroke="#d8c8ae" stroke-width="2.8" stroke-linecap="round"/>
      <ellipse cx="0" cy="0" rx="17" ry="4.6" fill="#2a1c12" stroke="rgba(200,163,117,.5)" stroke-width="1"/>
      <ellipse cx="0" cy="0" rx="13" ry="3.4" fill="url(#coffeeLiquid)"/>
      <ellipse cx="0" cy="-.5" rx="13" ry="3" fill="none" stroke="#e9c98a" stroke-width=".8" opacity=".5"/>
      <path d="M-2,-15 q4,6 -2,10" stroke="#fff" stroke-width="1.2" fill="none" opacity=".26" stroke-linecap="round"/>
    </g>
  </defs>

  <rect width="1600" height="1050" fill="url(#sky)"/>

  <!-- far bokeh — out-of-focus café lights, very dim, opposite the bar -->
  <circle cx="220" cy="300" r="42" fill="#c8a375" opacity=".045"/>
  <circle cx="360" cy="215" r="24" fill="#e9c98a" opacity=".04"/>
  <circle cx="120" cy="475" r="28" fill="#c8a375" opacity=".035"/>
  <circle cx="520" cy="335" r="17" fill="#f0ddc0" opacity=".04"/>
  <circle cx="650" cy="470" r="12" fill="#e9c98a" opacity=".035"/>

  <!-- subway-tile backsplash behind the bar, barely-there texture -->
  <g stroke="#c8a375" stroke-width="1" opacity=".05">
    <line x1="1080" y1="360" x2="1080" y2="700"/>
    <line x1="1122" y1="360" x2="1122" y2="700"/>
    <line x1="1164" y1="360" x2="1164" y2="700"/>
    <line x1="1206" y1="360" x2="1206" y2="700"/>
    <line x1="1248" y1="360" x2="1248" y2="700"/>
    <line x1="1290" y1="360" x2="1290" y2="700"/>
    <line x1="1332" y1="360" x2="1332" y2="700"/>
    <line x1="1374" y1="360" x2="1374" y2="700"/>
    <line x1="1416" y1="360" x2="1416" y2="700"/>
    <line x1="1458" y1="360" x2="1458" y2="700"/>
    <line x1="1080" y1="440" x2="1500" y2="440"/>
    <line x1="1080" y1="520" x2="1500" y2="520"/>
    <line x1="1080" y1="600" x2="1500" y2="600"/>
  </g>

  <!-- ══ pendant lamp — cord, canopy, shade, glowing bulb, soft light cone ══ -->
  <line x1="1485" y1="0" x2="1485" y2="234" stroke="#1e1610" stroke-width="4"/>
  <rect x="1478" y="0" width="14" height="10" fill="#161009"/>
  <path d="M1447 234 L1523 234 L1507 278 L1463 278 Z" fill="#171009" stroke="rgba(200,163,117,.4)" stroke-width="1.5"/>
  <path d="M1451 236 L1519 236" stroke="rgba(200,163,117,.5)" stroke-width="1"/>
  <ellipse cx="1485" cy="283" rx="17" ry="6" fill="#fff3da" opacity=".8"/>
  <ellipse cx="1485" cy="283" rx="9" ry="3.4" fill="#fff9ec"/>
  <path d="M1463 279 L1420 430 L1550 430 L1507 279 Z" fill="url(#lightCone)"/>
  <circle cx="1485" cy="430" r="230" fill="url(#lampGlowOuter)"/>
  <circle cx="1485" cy="330" r="110" fill="url(#lampGlowInner)"/>

  <!-- counter -->
  <rect x="0" y="700" width="1600" height="350" fill="url(#counter)"/>
  <line x1="0" y1="700" x2="1600" y2="700" stroke="rgba(200,163,117,.3)" stroke-width="2"/>
  <line x1="0" y1="703" x2="1600" y2="703" stroke="rgba(0,0,0,.3)" stroke-width="1.5"/>
  <rect x="0" y="700" width="1600" height="350" fill="url(#counterSheen)"/>
  <g stroke="#000" stroke-width="1" opacity=".12">
    <line x1="0" y1="760" x2="1600" y2="758"/>
    <line x1="0" y1="830" x2="1600" y2="833"/>
    <line x1="0" y1="905" x2="1600" y2="901"/>
  </g>
  <ellipse cx="1485" cy="722" rx="340" ry="24" fill="#c8a375" opacity=".08"/>

  <!-- ══ espresso machine assembly — bleeds off the right edge ══ -->
  <g transform="translate(260 0)">

    <!-- grounding shadow for the whole assembly -->
    <ellipse cx="1240" cy="712" rx="380" ry="26" fill="url(#shadowSoft)"/>

    <!-- ── grinder, left of the machine, standing on the counter ── -->
    <ellipse cx="1000" cy="708" rx="52" ry="9" fill="url(#shadowSoft)"/>
    <g transform="translate(0 136)">
      <!-- hopper -->
      <path d="M968 396 L1032 396 L1022 452 L978 452 Z" fill="url(#hopperGlass)" stroke="rgba(200,163,117,.4)" stroke-width="1.5"/>
      <ellipse cx="1000" cy="396" rx="32" ry="10" fill="#241810" stroke="rgba(200,163,117,.4)" stroke-width="1.5"/>
      <ellipse cx="1000" cy="393" rx="27" ry="7.5" fill="#150e08"/>
      <!-- bean texture inside the hopper -->
      <g fill="#4a3216">
        <ellipse cx="988" cy="415" rx="5" ry="3.4" transform="rotate(20 988 415)"/>
        <ellipse cx="1002" cy="410" rx="5" ry="3.4" transform="rotate(-15 1002 410)"/>
        <ellipse cx="1014" cy="418" rx="5" ry="3.4" transform="rotate(35 1014 418)"/>
        <ellipse cx="994" cy="428" rx="5" ry="3.4" transform="rotate(-25 994 428)"/>
        <ellipse cx="1008" cy="432" rx="5" ry="3.4" transform="rotate(10 1008 432)"/>
        <ellipse cx="982" cy="436" rx="4.5" ry="3" transform="rotate(40 982 436)"/>
        <ellipse cx="1018" cy="440" rx="4.5" ry="3" transform="rotate(-20 1018 440)"/>
      </g>
      <g fill="#8a6a42" opacity=".55">
        <ellipse cx="986" cy="413" rx="1.6" ry="1"/>
        <ellipse cx="1000" cy="408" rx="1.6" ry="1"/>
        <ellipse cx="1012" cy="416" rx="1.6" ry="1"/>
      </g>
      <!-- grind chamber / body -->
      <rect x="962" y="452" width="76" height="94" rx="8" fill="url(#bodyMetal)"/>
      <rect x="962" y="452" width="76" height="94" rx="8" fill="url(#bodySheen)"/>
      <line x1="964" y1="474" x2="1036" y2="474" stroke="rgba(200,163,117,.35)" stroke-width="1.5"/>
      <!-- grind-size collar -->
      <circle cx="1000" cy="488" r="12" fill="#120c07" stroke="rgba(200,163,117,.45)" stroke-width="1.5"/>
      <line x1="1000" y1="488" x2="1000" y2="479" stroke="rgba(233,201,138,.6)" stroke-width="1.5"/>
      <g stroke="rgba(200,163,117,.3)" stroke-width="1">
        <line x1="1000" y1="478" x2="1000" y2="482"/>
        <line x1="1012" y1="488" x2="1008" y2="488"/>
        <line x1="1000" y1="498" x2="1000" y2="494"/>
        <line x1="988" y1="488" x2="992" y2="488"/>
      </g>
      <!-- doser lever -->
      <rect x="1030" y="510" width="20" height="6" rx="3" fill="#1c130c" stroke="rgba(200,163,117,.4)" stroke-width="1"/>
      <rect x="962" y="452" width="3" height="94" fill="url(#rimV)" opacity=".6"/>
      <!-- doser tray + ground coffee mound -->
      <rect x="972" y="546" width="56" height="14" rx="4" fill="#170f0a"/>
      <ellipse cx="1000" cy="548" rx="20" ry="5" fill="#3a2414"/>
      <!-- feet, flush on the counter -->
      <rect x="972" y="560" width="12" height="10" rx="2" fill="#110b07"/>
      <rect x="1016" y="560" width="12" height="10" rx="2" fill="#110b07"/>
    </g>

    <!-- ── espresso machine body ── -->
    <rect x="1060" y="470" width="330" height="178" rx="16" fill="url(#bodyMetal)"/>
    <rect x="1060" y="470" width="330" height="178" rx="16" fill="url(#bodySheen)"/>
    <rect x="1060" y="470" width="330" height="178" rx="16" fill="none" stroke="rgba(0,0,0,.4)" stroke-width="1.5"/>

    <!-- top cup-warmer tray with grate texture -->
    <rect x="1048" y="448" width="354" height="30" rx="10" fill="#1c120b"/>
    <rect x="1048" y="448" width="354" height="30" rx="10" fill="url(#bodySheen)"/>
    <line x1="1052" y1="450" x2="1398" y2="450" stroke="rgba(200,163,117,.6)" stroke-width="2.5"/>
    <g stroke="#0a0704" stroke-width="1" opacity=".6">
      <line x1="1060" y1="460" x2="1394" y2="460"/>
      <line x1="1060" y1="466" x2="1394" y2="466"/>
    </g>

    <!-- walnut trim strip, the seam between tray and body -->
    <rect x="1048" y="474" width="354" height="5" rx="2" fill="url(#walnut)"/>

    <!-- corner rivets -->
    <g fill="#0c0805" stroke="rgba(200,163,117,.35)" stroke-width="1">
      <circle cx="1072" cy="486" r="3"/>
      <circle cx="1378" cy="486" r="3"/>
      <circle cx="1072" cy="634" r="3"/>
      <circle cx="1378" cy="634" r="3"/>
    </g>

    <!-- brand badge -->
    <g transform="translate(1225 494)">
      <rect x="-42" y="-8" width="84" height="16" rx="8" fill="#0e0a06" stroke="rgba(200,163,117,.3)" stroke-width="1"/>
      <line x1="-30" y1="0" x2="-6" y2="0" stroke="#c8a375" stroke-width="2" stroke-linecap="round"/>
      <circle cx="2" cy="0" r="2.2" fill="#e9c98a"/>
      <line x1="10" y1="0" x2="30" y2="0" stroke="#c8a375" stroke-width="2" stroke-linecap="round"/>
    </g>

    <!-- twin pressure gauges, chrome-bezeled, one per group head -->
    <use href="#pGauge" x="1146" y="522"/>
    <use href="#pGauge" x="1308" y="522"/>

    <!-- digital display, centered between the gauges -->
    <g transform="translate(1179 502)">
      <rect x="0" y="0" width="92" height="18" rx="3" fill="#0a1410" stroke="rgba(120,200,160,.35)" stroke-width="1"/>
      <line x1="8" y1="9" x2="40" y2="9" stroke="#7be0b0" stroke-width="1.6" opacity=".8"/>
      <line x1="48" y1="9" x2="84" y2="9" stroke="#7be0b0" stroke-width="1.6" opacity=".5"/>
    </g>

    <!-- three control buttons, tucked between the group heads -->
    <g fill="#120c07" stroke="rgba(200,163,117,.4)" stroke-width="1.1">
      <circle cx="1205" cy="597" r="6"/>
      <circle cx="1225" cy="597" r="6"/>
      <circle cx="1245" cy="597" r="6"/>
    </g>
    <g fill="#e9c98a" opacity=".7">
      <circle cx="1203" cy="595" r="1.1"/>
      <circle cx="1223" cy="595" r="1.1"/>
      <circle cx="1243" cy="595" r="1.1"/>
    </g>

    <!-- water tank, right side panel -->
    <g transform="translate(1330 486)">
      <rect x="0" y="0" width="42" height="52" rx="6" fill="url(#tankGlass)" stroke="rgba(200,163,117,.4)" stroke-width="1.5"/>
      <line x1="4" y1="20" x2="38" y2="20" stroke="rgba(188,216,230,.4)" stroke-width="1.5"/>
      <circle cx="21" cy="-4" r="6" fill="url(#chrome)" stroke="rgba(20,20,25,.4)" stroke-width="1.2"/>
    </g>

    <!-- ── group heads, portafilters, cups, pours ── -->
    <g>
      <!-- collars, polished chrome -->
      <ellipse cx="1146" cy="596" rx="42" ry="9" fill="url(#chrome)" stroke="rgba(20,20,25,.5)" stroke-width="1.3"/>
      <ellipse cx="1308" cy="596" rx="42" ry="9" fill="url(#chrome)" stroke="rgba(20,20,25,.5)" stroke-width="1.3"/>
      <rect x="1108" y="580" width="76" height="34" rx="7" fill="#1f1409"/>
      <rect x="1270" y="580" width="76" height="34" rx="7" fill="#1f1409"/>
      <line x1="1110" y1="582" x2="1182" y2="582" stroke="rgba(200,163,117,.4)" stroke-width="1.5"/>
      <line x1="1272" y1="582" x2="1344" y2="582" stroke="rgba(200,163,117,.4)" stroke-width="1.5"/>

      <!-- volumetric paddle levers, mounted on the outer side of each group head -->
      <g transform="translate(1104 592) rotate(-20)">
        <rect x="-4" y="-4" width="8" height="30" rx="4" fill="url(#chromeH)" stroke="rgba(20,20,25,.5)" stroke-width="1"/>
      </g>
      <g transform="translate(1350 592) rotate(20)">
        <rect x="-4" y="-4" width="8" height="30" rx="4" fill="url(#chromeH)" stroke="rgba(20,20,25,.5)" stroke-width="1"/>
      </g>

      <!-- portafilter handles -->
      <rect x="1122" y="614" width="48" height="12" rx="6" fill="#241610" stroke="rgba(200,163,117,.35)" stroke-width="1"/>
      <rect x="1284" y="614" width="48" height="12" rx="6" fill="#241610" stroke="rgba(200,163,117,.35)" stroke-width="1"/>
      <circle cx="1146" cy="626" r="9" fill="url(#chrome)" stroke="rgba(20,20,25,.5)" stroke-width="1.3"/>
      <circle cx="1308" cy="626" r="9" fill="url(#chrome)" stroke="rgba(20,20,25,.5)" stroke-width="1.3"/>
      <path d="M1138 630 L1154 630 L1149 644 L1143 644 Z" fill="#170f0a"/>
      <path d="M1300 630 L1316 630 L1311 644 L1305 644 Z" fill="#170f0a"/>

      <!-- twin spouts + pours -->
      <line x1="1142" y1="644" x2="1142" y2="654" stroke="#0e0a06" stroke-width="2"/>
      <line x1="1150" y1="644" x2="1150" y2="654" stroke="#0e0a06" stroke-width="2"/>
      <line x1="1304" y1="644" x2="1304" y2="654" stroke="#0e0a06" stroke-width="2"/>
      <line x1="1312" y1="644" x2="1312" y2="654" stroke="#0e0a06" stroke-width="2"/>
      <path d="M1142 652 L1145 670 L1148 652" fill="none" stroke="url(#streamGrad)" stroke-width="2.4" stroke-linecap="round"/>
      <path d="M1150 652 L1148 670" fill="none" stroke="url(#streamGrad)" stroke-width="1.8" stroke-linecap="round"/>
      <path d="M1304 652 L1307 670 L1310 652" fill="none" stroke="url(#streamGrad)" stroke-width="2.4" stroke-linecap="round"/>
      <ellipse cx="1146" cy="670" rx="4" ry="2" fill="#e9c98a" opacity=".5"/>
      <ellipse cx="1308" cy="670" rx="4" ry="2" fill="#e9c98a" opacity=".5"/>

      <!-- demitasse cups, rim resting where the pours land, saucers flush on the counter -->
      <use href="#demiCup" x="1146" y="670"/>
      <use href="#demiCup" x="1308" y="670"/>
    </g>

    <!-- steam wand, chrome, with nozzle + joint + tiny wisp -->
    <circle cx="1394" cy="546" r="7" fill="url(#chrome)" stroke="rgba(20,20,25,.4)" stroke-width="1.3"/>
    <path d="M1394 550 q34 8 40 52 l-8 46" fill="none" stroke="url(#chromeH)" stroke-width="9" stroke-linecap="round"/>
    <circle cx="1426" cy="648" r="4" fill="url(#chrome)" stroke="rgba(20,20,25,.4)" stroke-width="1"/>
    <path d="M1418 654 q6 -10 -2 -18" stroke="#f0ddc0" stroke-width="1.6" fill="none" opacity=".3" stroke-linecap="round"/>

    <!-- hot water wand, chrome, mounted on the left side of the body (short, near-vertical) -->
    <circle cx="1064" cy="546" r="6" fill="url(#chrome)" stroke="rgba(20,20,25,.4)" stroke-width="1.2"/>
    <path d="M1064 550 q-8 8 -10 46 l4 40" fill="none" stroke="url(#chromeH)" stroke-width="7" stroke-linecap="round"/>
    <circle cx="1058" cy="636" r="3.5" fill="url(#chrome)" stroke="rgba(20,20,25,.4)" stroke-width="1"/>
    <ellipse cx="1060" cy="641" rx="2.2" ry="3" fill="#bcd8e6" opacity=".5"/>

    <!-- rim lights on the body's vertical edges + top -->
    <rect x="1387" y="470" width="3" height="152" fill="url(#rimV)"/>
    <rect x="1060" y="470" width="3" height="132" fill="url(#rimV)" opacity=".55"/>
    <rect x="1060" y="470" width="330" height="3" fill="url(#rimTop)" opacity=".7"/>

    <!-- drip tray, perforated stainless grate -->
    <rect x="1070" y="672" width="310" height="16" rx="6" fill="#170f0a"/>
    <g fill="#0a0704" opacity=".75">
      <circle cx="1080" cy="678" r="1.6"/><circle cx="1080" cy="684" r="1.6"/>
      <circle cx="1096" cy="678" r="1.6"/><circle cx="1096" cy="684" r="1.6"/>
      <circle cx="1112" cy="678" r="1.6"/><circle cx="1112" cy="684" r="1.6"/>
      <circle cx="1128" cy="678" r="1.6"/><circle cx="1128" cy="684" r="1.6"/>
      <circle cx="1144" cy="678" r="1.6"/><circle cx="1144" cy="684" r="1.6"/>
      <circle cx="1160" cy="678" r="1.6"/><circle cx="1160" cy="684" r="1.6"/>
      <circle cx="1176" cy="678" r="1.6"/><circle cx="1176" cy="684" r="1.6"/>
      <circle cx="1274" cy="678" r="1.6"/><circle cx="1274" cy="684" r="1.6"/>
      <circle cx="1290" cy="678" r="1.6"/><circle cx="1290" cy="684" r="1.6"/>
      <circle cx="1306" cy="678" r="1.6"/><circle cx="1306" cy="684" r="1.6"/>
      <circle cx="1322" cy="678" r="1.6"/><circle cx="1322" cy="684" r="1.6"/>
      <circle cx="1338" cy="678" r="1.6"/><circle cx="1338" cy="684" r="1.6"/>
      <circle cx="1354" cy="678" r="1.6"/><circle cx="1354" cy="684" r="1.6"/>
      <circle cx="1370" cy="678" r="1.6"/><circle cx="1370" cy="684" r="1.6"/>
    </g>
    <line x1="1074" y1="674" x2="1376" y2="674" stroke="rgba(200,163,117,.3)" stroke-width="1.5"/>

    <!-- feet -->
    <rect x="1088" y="690" width="20" height="16" rx="3" fill="#110b07" stroke="rgba(200,163,117,.25)" stroke-width="1"/>
    <rect x="1342" y="690" width="20" height="16" rx="3" fill="#110b07" stroke="rgba(200,163,117,.25)" stroke-width="1"/>

    <!-- nested stack of saucers, right of the machine, bleeding further off-frame -->
    <g transform="translate(1462 0)">
      <ellipse cx="60" cy="709" rx="58" ry="9" fill="url(#shadowSoft)"/>
      <ellipse cx="60" cy="699" rx="52" ry="10" fill="#e8ddc9" stroke="rgba(200,163,117,.3)" stroke-width="1.1"/>
      <ellipse cx="60" cy="691" rx="52" ry="10" fill="#efe6d6" stroke="rgba(200,163,117,.32)" stroke-width="1.1"/>
      <ellipse cx="60" cy="683" rx="52" ry="10" fill="#e8ddc9" stroke="rgba(200,163,117,.3)" stroke-width="1.1"/>
      <ellipse cx="60" cy="675" rx="52" ry="10" fill="#efe6d6" stroke="rgba(200,163,117,.32)" stroke-width="1.1"/>
      <ellipse cx="60" cy="667" rx="52" ry="10" fill="#e8ddc9" stroke="rgba(200,163,117,.35)" stroke-width="1.2"/>
      <ellipse cx="60" cy="667" rx="52" ry="10" fill="none" stroke="rgba(240,221,192,.35)" stroke-width="1"/>
    </g>
  </g>

  <!-- left fade keeps the text side clean -->
  <rect width="1080" height="1050" fill="url(#fadeL)"/>
</svg>
